# xmcd
#
# Track frame offsets:
#        150
#        18525
#        44550
#        67500
#
# Disc length: 1081 seconds
#
# Revision: 0
# Processed by: cddbd v1.5.1PL2 Copyright (c) Steve Scherf et al.
# Submitted via: ExactAudioCopy v0.95b3
#
DISCID=2a043704
DTITLE=John Ken Nuzzo - Treasure Voice
DYEAR=2003
DGENRE=Opera
TTITLE0=Du bist die Ruh' (Schubert)
TTITLE1="Faust"-Salut! demeure chaste et pure (Gounod)
TTITLE2=Phydile (Duparc)
TTITLE3="Turandot"-Nessun dorma! (Puccini)
EXTD=
EXTT0=
EXTT1=
EXTT2=
EXTT3=
PLAYORDER=
